0
SECTION
2
HEADER
9
$INSUNITS
70
4
9
$ACADVER
1
AC1014
9
$HANDSEED
5
FFFF
0
ENDSEC
0
SECTION
2
TABLES
0
TABLE
2
VPORT
5
8
100
AcDbSymbolTable
0
ENDTAB
0
TABLE
2
LTYPE
5
5
100
AcDbSymbolTable
0
LTYPE
5
14
100
AcDbSymbolTableRecord
100
AcDbLinetypeTableRecord
2
BYBLOCK
70
0
0
LTYPE
5
15
100
AcDbSymbolTableRecord
100
AcDbLinetypeTableRecord
2
BYLAYER
70
0
0
LTYPE
5
16
100
AcDbSymbolTableRecord
100
AcDbLinetypeTableRecord
2
DASHED
70
0
3
Dashed __ __ __ __ __ __ __ __ __ __ __ __ __ _
72
65
73
2
40
0.75
49
0.5
74
0
49
-0.25
74
0
0
ENDTAB
0
TABLE
2
LAYER
5
2
100
AcDbSymbolTable
70
2
0
LAYER
5
50
100
AcDbSymbolTableRecord
100
AcDbLayerTableRecord
2
0
70
0
62
7
6
CONTINUOUS
0
ENDTAB
0
TABLE
2
STYLE
5
3
100
AcDbSymbolTable
70
1
0
STYLE
5
11
100
AcDbSymbolTableRecord
100
AcDbTextStyleTableRecord
2
STANDARD
70
0
0
ENDTAB
0
TABLE
2
VIEW
5
6
100
AcDbSymbolTable
70
0
0
ENDTAB
0
TABLE
2
UCS
5
7
100
AcDbSymbolTable
70
0
0
ENDTAB
0
TABLE
2
APPID
5
9
100
AcDbSymbolTable
70
2
0
APPID
5
12
100
AcDbSymbolTableRecord
100
AcDbRegAppTableRecord
2
ACAD
70
0
0
ENDTAB
0
TABLE
2
DIMSTYLE
5
A
100
AcDbSymbolTable
70
1
0
ENDTAB
0
TABLE
2
BLOCK_RECORD
5
1
100
AcDbSymbolTable
70
1
0
BLOCK_RECORD
5
1F
100
AcDbSymbolTableRecord
100
AcDbBlockTableRecord
2
*MODEL_SPACE
0
BLOCK_RECORD
5
1B
100
AcDbSymbolTableRecord
100
AcDbBlockTableRecord
2
*PAPER_SPACE
0
ENDTAB
0
ENDSEC
0
SECTION
2
BLOCKS
0
BLOCK
5
20
100
AcDbEntity
100
AcDbBlockBegin
2
*MODEL_SPACE
0
ENDBLK
5
21
100
AcDbEntity
100
AcDbBlockEnd
0
BLOCK
5
1C
100
AcDbEntity
100
AcDbBlockBegin
2
*PAPER_SPACE
0
ENDBLK
5
1D
100
AcDbEntity
100
AcDbBlockEnd
0
ENDSEC
0
SECTION
2
ENTITIES
0
POINT
5
100
100
AcDbEntity
8
0
100
AcDbPoint
10
0
20
0
30
0
0
LINE
5
101
100
AcDbEntity
8
0
100
AcDbLine
10
-29.197688300718127
20
-68.679264945963695
30
0
11
-29.197688300718127
21
-56.179264945963695
31
0
0
LINE
5
102
100
AcDbEntity
8
0
100
AcDbLine
10
29.051406700011164
20
-56.179264945963851
30
0
11
29.051406700011292
21
-68.679264945963837
31
0
0
LWPOLYLINE
5
103
100
AcDbEntity
8
0
100
AcDbPolyline
90
80
70
1
43
0.0
10
-39
20
-53.000000000000007
10
-39
20
-50.000000000000007
10
-33
20
-50.000000000000007
10
-33
20
-53.000000000000007
10
-15.000000000000004
20
-53.000000000000007
10
-15.000000000000004
20
-50.000000000000007
10
-9.0000000000000036
20
-50.000000000000007
10
-9.0000000000000036
20
-53.000000000000007
10
8.9999999999999947
20
-53.000000000000007
10
8.9999999999999947
20
-50.000000000000007
10
14.999999999999996
20
-50.000000000000007
10
14.999999999999996
20
-53.000000000000007
10
32.999999999999986
20
-53.000000000000007
10
32.999999999999986
20
-50.000000000000007
10
38.999999999999993
20
-50.000000000000007
10
38.999999999999993
20
-53.000000000000007
10
53.000000000000007
20
-53.000000000000007
10
53.000000000000007
20
-50.000000000000007
10
53
20
-36.000000000000007
10
50
20
-36.000000000000007
10
50
20
-30.000000000000004
10
53
20
-30.000000000000004
10
53
20
-12.000000000000002
10
50
20
-12.000000000000002
10
50
20
-6.0000000000000009
10
53
20
-6.0000000000000009
10
53
20
12.000000000000002
10
50
20
12.000000000000002
10
50
20
18.000000000000004
10
53
20
18.000000000000004
10
53
20
36.000000000000007
10
50
20
36.000000000000007
10
50
20
42.000000000000014
10
53
20
42.000000000000014
10
53
20
60.000000000000007
10
50
20
60.000000000000007
10
50
20
66
10
53
20
66
10
53.000000000000007
20
80
10
53.000000000000007
20
83
10
38.999999999999993
20
83
10
38.999999999999993
20
80
10
32.999999999999986
20
80
10
32.999999999999986
20
83
10
14.999999999999996
20
83
10
14.999999999999996
20
80
10
8.9999999999999947
20
80
10
8.9999999999999947
20
83
10
-9.0000000000000036
20
83
10
-9.0000000000000036
20
80
10
-15.000000000000004
20
80
10
-15.000000000000004
20
83
10
-33
20
83
10
-33
20
80
10
-39
20
80
10
-39
20
83
10
-53.000000000000007
20
83
10
-53.000000000000007
20
80
10
-53.000000000000007
20
66
10
-50.000000000000007
20
66
10
-50.000000000000007
20
60.000000000000007
10
-53.000000000000007
20
60.000000000000007
10
-53.000000000000007
20
42.000000000000014
10
-50.000000000000007
20
42.000000000000014
10
-50.000000000000007
20
36.000000000000007
10
-53.000000000000007
20
36.000000000000007
10
-53.000000000000007
20
18.000000000000004
10
-50.000000000000007
20
18.000000000000004
10
-50.000000000000007
20
12.000000000000002
10
-53.000000000000007
20
12.000000000000002
10
-53.000000000000007
20
-6.0000000000000009
10
-50.000000000000007
20
-6.0000000000000009
10
-50.000000000000007
20
-12.000000000000002
10
-53.000000000000007
20
-12.000000000000002
10
-53.000000000000007
20
-30.000000000000004
10
-50.000000000000007
20
-30.000000000000004
10
-50.000000000000007
20
-36.000000000000007
10
-53.000000000000007
20
-36.000000000000007
10
-53.000000000000007
20
-50.000000000000007
10
-53.000000000000007
20
-53.000000000000007
0
LWPOLYLINE
5
104
100
AcDbEntity
8
0
100
AcDbPolyline
90
4
70
1
43
0.0
10
-24.856833137818825
20
47.179098533820316
10
42.143167860558975
20
47.179098533820316
10
42.143167860558975
20
37.179098384808704
10
-24.856833137818825
20
37.179098384808704
0
LWPOLYLINE
5
105
100
AcDbEntity
8
0
100
AcDbPolyline
90
24
70
1
43
0.0
10
68.762003263465829
20
83
10
105.76200326346583
20
83
10
105.76200326346583
20
-53
10
68.762003263465829
20
-52.999999999999986
10
68.762003263465829
20
-36.000000000000007
10
65.762003263465829
20
-36.000000000000007
10
65.762003263465829
20
-30.000000000000004
10
68.762003263465829
20
-30.000000000000004
10
68.762003263465829
20
-12.000000000000009
10
65.762003263465829
20
-12.000000000000009
10
65.762003263465829
20
-6.000000000000016
10
68.762003263465829
20
-6.0000000000000231
10
68.762003263465829
20
11.999999999999995
10
65.762003263465829
20
11.999999999999995
10
65.762003263465829
20
18
10
68.762003263465829
20
18
10
68.762003263465829
20
35.996604260139804
10
65.762003263465829
20
35.99660426013979
10
65.762003263465829
20
42.000000000000014
10
68.762003263465829
20
42.000000000000014
10
68.762003263465829
20
60.000000000000007
10
65.762003263465829
20
60.000000000000007
10
65.762003263465829
20
66
10
68.762003263465829
20
66
0
LINE
5
106
100
AcDbEntity
8
0
100
AcDbLine
10
68.7620032634658
20
83
30
0
11
105.76200326346583
21
83
31
0
0
LINE
5
107
100
AcDbEntity
8
0
100
AcDbLine
10
105.76200326346583
20
83
30
0
11
105.76200326346583
21
-53
31
0
0
LINE
5
108
100
AcDbEntity
8
0
100
AcDbLine
10
105.76200326346583
20
-53
30
0
11
68.762003263465829
21
-53.000000000000007
31
0
0
LWPOLYLINE
5
109
100
AcDbEntity
8
0
100
AcDbPolyline
90
24
70
1
43
0.0
10
-70.725311885955136
20
-11.999999999999993
10
-73.725311885955108
20
-11.999999999999993
10
-73.725311885955136
20
-30
10
-70.725311885955136
20
-30
10
-70.725311885955136
20
-35.999999999999979
10
-73.725311885955136
20
-35.999999999999979
10
-73.725311885955151
20
-53.000000000000007
10
-110.72531188595514
20
-53.000000000000007
10
-110.72531188595512
20
83
10
-73.725311885955023
20
83
10
-73.725311885955023
20
66.000000000000014
10
-70.725311885955136
20
66.000000000000014
10
-70.725311885955136
20
60.000000000000036
10
-73.725311885955051
20
60.000000000000036
10
-73.725311885955051
20
42.000000000000028
10
-70.725311885955136
20
42.000000000000028
10
-70.725311885955136
20
36.000000000000014
10
-73.725311885955051
20
36.000000000000014
10
-73.72531188595508
20
18.000000000000025
10
-70.725311885955136
20
18.000000000000025
10
-70.725311885955136
20
12.000000000000011
10
-73.72531188595508
20
12.000000000000011
10
-73.725311885955094
20
-5.9966042601397973
10
-70.725311885955136
20
-5.9966042601397795
0
LWPOLYLINE
5
110
100
AcDbEntity
8
0
100
AcDbPolyline
90
4
70
1
43
0.0
10
76.762003263465829
20
-11.721822788424072
10
84.762003263465843
20
-11.721822788424072
10
84.762003263465843
20
-26.72182278842407
10
76.762003263465829
20
-26.72182278842407
0
LWPOLYLINE
5
111
100
AcDbEntity
8
0
100
AcDbPolyline
90
4
70
1
43
0.0
10
-75.725311885955051
20
77.000000000000014
10
-83.725311885955051
20
77.000000000000014
10
-83.725311885955051
20
52.000000000000014
10
-75.725311885955051
20
52.000000000000014
0
ENDSEC
0
SECTION
2
OBJECTS
0
DICTIONARY
5
C
100
AcDbDictionary
3
ACAD_GROUP
350
D
3
ACAD_MLINESTYLE
350
17
0
DICTIONARY
5
D
100
AcDbDictionary
0
DICTIONARY
5
1A
330
C
100
AcDbDictionary
0
DICTIONARY
5
17
100
AcDbDictionary
0
ENDSEC
0
EOF
